<svg xmlns="http://www.w3.org/2000/svg" xmlns:xlink="http://www.w3.org/1999/xlink" width="433" zoomAndPan="magnify" viewBox="0 0 324.75 693.000001" height="924" preserveAspectRatio="xMidYMid meet" version="1.0"><defs><clipPath id="95f8068e21"><path d="M 0.109375 0 L 324.390625 0 L 324.390625 692 L 0.109375 692 Z M 0.109375 0 " clip-rule="nonzero"/></clipPath><clipPath id="80f1b645dc"><path d="M 0.109375 545.574219 L 324.390625 545.574219 L 324.390625 692 L 0.109375 692 Z M 0.109375 545.574219 " clip-rule="nonzero"/></clipPath><clipPath id="b0fcab698e"><path d="M 0.109375 474.347656 L 324.390625 474.347656 L 324.390625 664.953125 L 0.109375 664.953125 Z M 0.109375 474.347656 " clip-rule="nonzero"/></clipPath><clipPath id="678da500c0"><path d="M 162.25 474.347656 C -1.035156 474.347656 -133.402344 517.015625 -133.402344 569.648438 C -133.402344 622.285156 -1.035156 664.953125 162.25 664.953125 C 325.535156 664.953125 457.902344 622.285156 457.902344 569.648438 C 457.902344 517.015625 325.535156 474.347656 162.25 474.347656 Z M 162.25 474.347656 " clip-rule="nonzero"/></clipPath></defs><g clip-path="url(#95f8068e21)"><path fill="#ffffff" d="M 0.109375 0 L 324.390625 0 L 324.390625 692 L 0.109375 692 Z M 0.109375 0 " fill-opacity="1" fill-rule="nonzero"/><path fill="#ffffff" d="M 0.109375 0 L 324.390625 0 L 324.390625 692 L 0.109375 692 Z M 0.109375 0 " fill-opacity="1" fill-rule="nonzero"/><path fill="#202434" d="M 0.109375 0 L 324.390625 0 L 324.390625 692 L 0.109375 692 Z M 0.109375 0 " fill-opacity="1" fill-rule="nonzero"/></g><g clip-path="url(#80f1b645dc)"><path fill="#ffffff" d="M 0.109375 545.574219 L 340.515625 545.574219 L 340.515625 692 L 0.109375 692 Z M 0.109375 545.574219 " fill-opacity="1" fill-rule="nonzero"/></g><g clip-path="url(#b0fcab698e)"><g clip-path="url(#678da500c0)"><path fill="#202434" d="M -133.402344 474.347656 L 457.902344 474.347656 L 457.902344 664.953125 L -133.402344 664.953125 Z M -133.402344 474.347656 " fill-opacity="1" fill-rule="nonzero"/></g></g></svg>